<?xml version="1.0" encoding="utf-8"?>
<!-- Generator: Adobe Illustrator 21.0.2, SVG Export Plug-In . SVG Version: 6.00 Build 0)  -->
<svg version="1.1" id="Layer_1" xmlns="http://www.w3.org/2000/svg" xmlns:xlink="http://www.w3.org/1999/xlink" x="0px" y="0px"
	 viewBox="0 0 1180 1197" style="enable-background:new 0 0 1180 1197;" xml:space="preserve">
<style type="text/css">
	.st0{fill:#A74A23;}
	.st1{fill:#CC7F5A;}
	.st2{fill:none;}
	.st3{fill:#9CFF00;}
	.st4{fill:#00C1FF;}
	.st5{fill:#FF6400;}
</style>
<path class="st0" d="M1135.5,540.2c-1.8-21.9-8.4-43.1-16.4-63.4c-7.8-19.7-16.9-39.1-29-56.5c-11.9-17.3-26.8-32.2-42.4-46.1
	c-16-14.3-33.2-27.5-52.2-37.7c-37.2-19.9-79.1-30.2-121.1-32.6c-23.1-1.3-46.5-0.4-69.2,4.4c-21,4.4-41.2,12.2-60.6,21.3
	c-21.2,10-41.7,21.7-60,36.4c-18.6,15-34.3,33.2-48.8,52l2.3-2.8c-20.6,26.6-32,59.2-38.2,91.9c-3.5,18.6-5.4,37.4-6.5,56.3
	c-1.1,18.6-1.5,37.5,2.2,55.9c3.5,17.6,10.6,34.2,17.4,50.7c6.9,16.8,13.8,33.6,23.1,49.2c17.2,28.6,41.3,52.4,67.7,72.5
	c52,39.8,118.2,61.2,183.8,55.9c35.6-2.9,70.1-14.1,102.1-29.6c29.4-14.2,58.4-31.1,80.5-55.5c22.6-25,35.8-56.6,46.9-88
	c6-17,11.7-34.1,14.8-51.9c3.2-18.2,3.4-36.7,3.8-55.1C1136,558.4,1136.3,549.3,1135.5,540.2z"/>
<path class="st1" d="M1029.1,494.2c-1.4-28-12.8-58.2-28.2-81.5l0,0c-7.3-9.9-13.1-21.7-23.9-28.4c-5.3-3.2-11.3-4.8-16.7-7.7
	c-6.1-3.3-11.4-7.8-17.4-11.1c-23.9-12.9-52.8-13-79.3-11.6c-47,2.6-90.6,30.5-112.4,72.3c-20.7,39.6-23.6,94.4,7.8,129.5
	c16.9,18.9,42,26.6,66.3,30.6c30.5,5,61.8,8.2,92.7,5.3c28.2-2.6,59.2-6.4,82-24.7C1021.3,549.6,1030.5,521,1029.1,494.2z"/>
<g>
	<path class="st2" d="M595.9,591.6c1.9,1.6,3.9,3,6,4.3c5.8,3.1,11.9,5.3,18,7.6c3.2,1.2,6.4,2.4,9.5,3.8c2.5,1.1,4.9,2.2,7.5,3.1
		c4.1,0.9,8.3,1.2,12.5,1.8c3.7,0.5,7.5,0.9,11.2,1.4c0-1.3,0.1-2.5,0.2-3.8c0.2-3,0.6-5.9,1-8.9c0.4-3.1,0.8-6.2,1.2-9.3
		c1.3-10.5,2.6-21,4-31.5c-1.5-0.4-3.1-0.9-4.4-1.6c-2.3-1.3-4.6-2.6-6.8-4.2c-4.3-3.1-8.3-6.4-12.1-10.2
		c-4.2-4.2-8.4-8.5-11.7-13.4c-1.9-2.9-3.8-5.8-5.4-8.9c-1.2-2.3-2.4-4.6-3.6-6.9c-0.9-1.7-1.6-3.3-2.3-5.1
		c-0.4-1.2-0.8-2.4-1.1-3.6c-1-3.3-1.7-6.6-2.5-9.9c-0.6-2.5-1-5.1-1.5-7.6c-0.5-2.5-1-5-1.3-7.5c-0.7-5.6-1.2-11.1-1.4-16.7
		c-0.1-1.8-0.1-3.5-0.1-5.3c-0.6,1.4-1.1,2.7-1.6,4.1c-1.4,3.8-2.8,7.8-4.2,12.2c-1.7,5-2.9,10-3.9,14.6c-0.3,1.3-0.5,2.5-0.8,4
		c-0.2,1.1-0.4,2.2-0.6,3.3c-0.1,0.3-0.1,0.6-0.2,0.9l-0.1,0.5l-0.1,0.6c-0.4,1.7-0.7,3.4-1,5.1c-0.5,3.7-1.3,7.4-1.9,10.7l-0.1,0.3
		l-0.2,1c-0.2,0.9-0.3,1.7-0.5,2.6c-1.3,6.8-2.3,14.1-3.2,22.4c-0.5,5.2-0.6,10.6-0.6,15.2c0,3-0.3,6-0.6,8.9
		c-0.2,1.7-0.3,3.5-0.4,5.3c-0.3,5.1-0.4,10.3-0.4,16.1c0,0.4,0,0.9,0,1.3c0.2,0.2,0.3,0.4,0.5,0.6
		C593.8,589.7,594.8,590.7,595.9,591.6z"/>
	<path class="st2" d="M858.5,304c-2.1,0.8-4.2,1.9-6.1,2.9c-1.8,0.9-3.5,1.9-5.3,2.9c-2.7,1.7-5.3,3.5-7.9,5.3
		c-2.8,1.9-5.7,3.9-8.5,5.9c-4.8,3.5-9.8,6.7-14.3,10.6c-4.4,3.8-8.5,8-13.4,11.2c-1.2,0.8-2.4,1.5-3.5,2.3
		c-1.3,0.9-2.5,1.9-3.7,2.9c-2.1,1.8-4.2,3.7-6.3,5.6c-4.3,3.9-8.9,7.6-13.1,11.7c-0.5,0.5-1,1-1.5,1.5l0.1-0.1
		c-2.3,2.4-4.6,4.8-7,7.1c-3.1,3.2-6,6.5-8.9,9.8c-3.1,3.6-6.4,7.1-9.6,10.6c-3.3,3.5-6.2,7.2-9,11.2c-2.6,3.7-5.1,7.3-7.5,11.1
		c-1.9,3.4-3.7,6.8-5.4,10.2c-2.6,5.2-5.1,10.4-7.3,15.8c-2.3,5.6-4.9,11.1-7.1,16.8c-2.2,5.6-4.7,11.1-6.8,16.8
		c-1.1,2.8-1.8,5.9-2.6,8.8c-0.7,2.5-1.5,5-2.2,7.5c-2.1,8.8-4.2,17.7-6.1,26.6c-1.6,7.5-3.5,14.8-5,22.3c5.3-0.3,10.6-1,15.8-1.7
		c3.6-0.5,7.1-0.9,10.6-1.8c3-0.8,6.1-1.6,9.1-2.4c2.5-0.7,5.1-1.5,7.6-2.3c3.2-1.1,6.5-1.9,9.8-2.8c0.8-0.2,1.7-0.5,2.5-0.7
		c2.7-0.8,5.5-1.7,8.1-2.9c2.9-1.4,5.7-3,8.5-4.6c2.7-1.6,5.4-3.1,8.1-4.5c2.4-1.3,4.9-2.5,7.2-3.8c8.5-5.3,16.4-11.7,24.2-18
		c4.1-3.3,7.9-6.8,11.8-10.3c4.1-3.6,8.2-7.1,12.4-10.5c4-3.3,7.9-6.8,11.9-10.1c4.4-3.6,9.1-6.9,13.7-10.2
		c4.2-2.9,8.2-6.2,12.5-9.1c4.6-3.2,9.4-6,14.2-8.8c5.4-3.4,10.6-7,16-10.2c-0.4,0.3-0.9,0.5-1.3,0.8c0.5-0.3,0.9-0.5,1.4-0.8
		c0,0,0,0-0.1,0c1.3-0.8,2.6-1.5,3.9-2.3c1.5-0.9,3-1.7,4.5-2.6c3.2-2,6.4-4,9.6-6.1c2.4-1.6,4.8-3,7.3-4.5c1.9-1.1,3.8-2.2,5.7-3.2
		c7.4-3.7,15-7.2,22.5-10.7c4.9-2.2,9.8-4.4,14.8-6.4c5.8-2.3,11.8-3.8,17.8-5.4c10.4-2.7,20.8-5.5,31.4-7.1
		c5.3-0.8,10.6-1.3,16-1.5c6.1-0.3,12.2-0.5,18.3,0.1c1.6,0.2,3.2,0.4,4.9,0.5c-4-3.8-8.2-7.7-12.6-11.4
		c-11.3-9.5-21-16.6-30.6-22.3c-1.3-0.8-2.5-1.5-3.8-2.3l-0.5-0.3c-1.6-1-3.6-2.3-5.6-3.4c-4.2-2.4-8.7-4.2-13.2-5.9l-1-0.4
		c-0.6-0.2-1.2-0.5-1.8-0.7c-5.1-2.2-10.6-4.6-16.4-6.7c-1.8-0.7-3.7-1.3-5.5-2c-2.5-0.9-5.1-1.9-7.7-2.8c-1.2-0.4-2.4-0.8-3.6-1.3
		l-0.2-0.1c-3.2-1.1-6.4-2.3-9.6-3.2c-1-0.3-2-0.6-3-0.8c-0.9-0.2-1.8-0.5-2.6-0.7c-3.6-1-7.4-1.5-11.1-1.9l-0.6-0.1
		c-0.5-0.1-1-0.1-1.5-0.2l-1.2-0.4l-0.3-0.1l-0.9-0.3c-1.4-0.4-2.8-0.9-4.2-1.3l-1.3-0.4c-1.7-0.6-3.6-1.2-5.5-1.7
		c-3.8-1-8.1-1.6-13.5-1.9c-1.1-0.1-2.2-0.1-3.3-0.1c-1.2,0-2.3,0-3.4-0.1c-1.7-0.1-3.5-0.2-5-0.4c-0.8-0.1-1.6-0.1-2.4-0.2
		c-5.5-0.4-11-0.6-16.6-0.7c-0.1,0-0.3,0-0.4,0.1C861,303.7,859.7,303.8,858.5,304z"/>
	<path class="st2" d="M636.3,690.7c2.3-1.2,4.6-2,7.1-2.8c2.9-1,5.9-1.9,8.9-2.7c2.5-0.7,5.1-1.4,7.7-1.8c2.7-0.4,5.4-0.5,8.1-0.6
		c0.9,0,1.8-0.1,2.7-0.1c0-0.1,0-0.1,0-0.2c-1.3-5.7-2.3-11.4-3.4-17.1c-0.5-3.1-1.2-6.1-1.7-9.2c-0.4-2.7-0.9-5.4-1.3-8.1
		c-0.7-4.6-1.5-9.1-2.3-13.6c-1.4-0.2-2.9-0.4-4.3-0.6c-6.6-0.8-13.2-1.6-19.7-2.5c-3.6-0.5-7.2-1.2-10.6-2.6
		c-2.8-1.1-5.6-2.4-8.4-3.6c-5.8-2.3-11.8-4.5-17.6-6.9c-2.3-1-4.5-2-6.7-3.1c0.1,0.3,0.1,0.6,0.2,0.9c0.1,0.7,0.3,1.4,0.4,2.2
		l0.1,0.3l0.1,0.3c0.3,1.5,0.6,3.1,0.9,4.7c0.8,4.5,2.3,8.8,3.7,13l0.6,1.8c2.3,6.8,5,13.5,7.7,19.9l0.1,0.3
		c1.2,2.9,2.4,5.8,3.5,8.7c0.2,0.6,0.5,1.1,0.7,1.7l0.2,0.5l0.6,1.6l0.7,1.7c0.1,0.2,0.2,0.5,0.3,0.7c0.7,2.3,1.6,4.6,2.9,6.6
		l0.1,0.1c0.1,0.2,0.2,0.4,0.3,0.6l0.1,0.3l0.1,0.3l0.1,0.3c1.1,2.5,2.1,5,3.2,7.5c0.5,1.1,1,2.1,1.4,3l0.1,0.3
		c0.4,0.9,0.9,1.8,1.3,2.7c0.2,0.5,0.4,0.9,0.6,1.4c1.6-0.9,3.2-1.7,4.9-2.5C631.8,693,634,691.9,636.3,690.7z"/>
	<path class="st2" d="M633.1,460c0.2,6.5,0.6,13,1.6,19.3c0.6,3.7,1.4,7.4,2.1,11.1c0.6,3,1.2,5.9,1.9,8.8c0.3,0.9,0.5,1.7,0.9,2.6
		c0.7,1.9,1.5,3.6,2.4,5.4c1.2,2.4,2.5,4.7,3.7,7c1.6,2.6,3.3,5.1,5.1,7.5c2,2.6,4.3,5,6.6,7.4c3.9,3.8,8.1,7.3,12.7,10.2
		c0.1-0.8,0.3-1.6,0.4-2.5c1.1-5.9,2.7-11.7,4-17.6c1.3-6,2.6-11.9,4-17.9c1.6-6.7,3-13.4,5-19.9c1-3.2,1.9-6.4,2.8-9.6
		c0.8-3,1.9-5.8,3.1-8.7c1.1-2.6,2.2-5.3,3.3-7.9c1.2-2.9,2.2-5.8,3.5-8.7c1.2-2.6,2.3-5.3,3.4-7.9c1.1-2.7,2.2-5.4,3.4-8
		c2.5-5.4,5-10.8,7.8-16c3.1-5.9,6.4-11.8,10.3-17.3c1.8-2.5,3.4-5,5.2-7.5c1.7-2.3,3.6-4.5,5.5-6.7c1.9-2.2,4-4.3,6-6.5
		c2-2.1,3.9-4.3,5.8-6.5c3.9-4.5,8-8.8,12.3-13.1c1.8-1.9,3.6-3.7,5.5-5.6c0,0-0.1,0.1-0.1,0.1c0.2-0.2,0.4-0.4,0.6-0.6
		c-0.2,0.2-0.3,0.3-0.5,0.5c3.2-3.2,6.4-6.2,9.8-9.2c3.1-2.7,6.2-5.4,9.3-8.2c1.6-1.4,3.2-2.8,4.8-4.1c1.5-1.2,3.2-2.2,4.8-3.2
		c3.5-2.3,6.6-4.9,9.6-7.8c2.2-2,4.5-4.1,6.8-6c2.2-1.7,4.4-3.4,6.7-5c0.8-0.5,1.5-1.1,2.3-1.6c-5.1,0.6-10.4,1.4-15.4,3
		c-1.5,0.5-3.1,1-4.6,1.6l-0.2,0.1c-2.7,1-5.6,1.9-8.4,2.7c-1.6,0.5-3.3,0.9-4.9,1.3l-0.4,0.1c-2.6,0.7-5.5,1.4-8.2,2.3
		c-1.9,0.6-3.8,1.3-5.9,2l-0.3,0.1l-0.5,0.2c-1.1,0.4-2.1,0.7-3.1,1.1c-0.6,0.2-1.2,0.5-1.8,0.7c-0.1,0-0.2,0.1-0.4,0.1
		c-1.4,0.4-2.8,0.9-4.1,1.5c-1.3,0.5-2.5,1.2-3.7,1.8c-0.3,0.1-0.6,0.3-0.9,0.4c-4.8,2.1-9.5,4.6-13.5,6.8
		c-3.9,2.2-8.1,4.2-11.9,5.9c-5.2,2.4-10.5,5-15.6,8l-1.3,0.8l-0.2,0.1c-1.7,1.1-3.5,2.1-5.3,3.3c-1.3,0.9-2.6,1.8-3.9,2.8l-0.1,0.1
		l-0.1,0.1c-0.6,0.4-1.1,0.9-1.7,1.3c-5.7,4.2-11.5,8.7-17.3,13.3c-3.1,2.5-6.1,5.1-8.7,7.5c-0.8,0.7-1.6,1.4-2.4,2.1
		c-2.3,2-4.4,4.2-6.4,6.3l-0.1,0.1l-0.2,0.2c-1.1,1.1-2.1,2.2-3.2,3.3c-3.6,3.6-6.8,7.5-9.4,10.9c-0.7,0.9-1.4,1.7-2.2,2.5l-0.1,0.1
		c-0.8,0.9-1.7,2-2.6,3c-3.4,4.2-6.8,8.7-9.6,12.3c0,0,0,0,0,0.1l1.1-1.4c-0.4,0.5-0.8,1-1.2,1.5c-0.2,3.8-0.5,7.5-0.8,11.3
		C635.3,438.7,633.5,449.2,633.1,460z"/>
	<path class="st2" d="M1133.3,581.5c-3.1,2.3-6.4,4.3-9.7,6.2c-5.4,3-10.9,5.6-16.5,8.1c-5.7,2.5-11.2,5.3-16.7,8.2
		c-5.1,2.7-10.3,5.2-15.8,7c-5.6,1.8-11.2,3.6-16.7,5.8c-6.4,2.5-12.6,5.5-19.3,7.3c-6,1.6-12.2,2.6-18.2,3.9
		c-6.4,1.5-12.9,3-19.3,4.3c-6.5,1.3-13.1,2.2-19.6,3.3c-6.2,1-12.4,1.8-18.7,2.1c-7.5,0.4-15,0.5-22.6,0.4c-3.5-0.1-7.1-0.1-10.6,0
		c-2.7,0-5.4,0-8.1,0c-10.6,0.1-21.3,0.6-31.9,1.7c-6.4,0.7-12.7,1.7-19.1,2.4c-3.1,0.4-6.3,0.8-9.4,1.2c-3.1,0.4-6.3,0.6-9.4,0.8
		c-3.2,0.3-6.3,0.4-9.5,0.6c-3.1,0.2-6.1,0.6-9.2,0.7c-3.1,0.2-6.2,0.3-9.3,0.5c-4.2,0.3-8.4,0.3-12.7,0.2c-3.4,0-6.8,0-10.2-0.1
		c-3.3-0.1-6.5-0.3-9.8-0.5c-6.5-0.3-13-0.5-19.5-0.8c-6.3-0.3-12.5-0.6-18.8-1.3c-6.4-0.7-12.7-1.5-19.1-2.3
		c-12.9-1.6-25.8-3.6-38.8-4.2c-3.8-0.2-7.7-0.2-11.6-0.3c0.8,4.9,1.4,9.9,2.3,14.8c1.1,5.9,2.2,11.9,3.2,17.8
		c0.5,2.8,1.1,5.7,1.7,8.5c0.4,1.9,0.8,3.8,1.2,5.7c6,0.5,12,1.3,17.9,2.1c2.4,0.3,4.8,0.5,7.1,1c3.4,0.7,6.8,1.6,10,2.7
		c4.8,1.7,9.2,3.9,13.9,5.8c5.1,2.1,10.1,4,15.2,6.2c5,2.1,10.2,4.1,14.9,6.7c2.8,1.6,5.6,3.3,8.3,5.1c2.3,1.5,4.5,3.1,6.8,4.6
		c4.1,2.6,8.3,5.2,12.5,7.7c3.2,1.8,6.4,3.4,9.7,4.9c1.9,0.8,3.8,1.7,5.7,2.5c1.7,0.8,3.4,1.4,5.1,2.2c4.9,2.1,9.6,4.6,14.4,6.9
		c4.7,2.3,9.5,4.4,14.3,6.4c4.9,2,9.9,4.1,14.8,6.2c2.2,0.9,4.4,1.9,6.7,2.7c2.6,0.9,5.1,1.8,7.7,2.7c10,3.6,20,7.3,30.1,10.9
		c4.8,1.7,9.5,3.5,14.3,5.1c4.4,1.5,8.9,2.8,13.4,4.1c4.8,1.2,9.6,2.1,14.5,2.9c4.5,0.7,9.1,1.5,13.6,1.8c1.7-0.1,3.5-0.3,5.2-0.4
		c2.5-0.2,4.9-0.5,7.4-0.8c4.8-0.6,9.6-1.6,14.4-2.7c3.9-1.1,7.7-2.1,11.6-3c3.7-0.8,7.5-1.2,11.3-1.8c3.8-0.6,7.6-1.1,11.4-1.8
		c4.1-0.8,8.3-1.5,12.4-2.3c5.2-1,10.3-2.1,15.5-2.9c4.8-0.8,9.7-1.5,14.5-2.2c2.5-2.5,4.8-5,6.9-7.5c5-5.9,9.5-12.1,13.8-18.9
		c2.7-4.3,5.2-8.9,7.6-13.3l0.1-0.1l0.2-0.3c1.3-2.3,2.7-4.8,3.9-6.9l0.2-0.3l0.3-0.5c0.5-0.9,1-1.8,1.6-2.7
		c2.4-4.2,4.4-8.7,6.1-12.9c1.3-3.1,2.7-6.5,3.9-10c0.6-1.7,1.1-3.5,1.7-5.3l0.4-1.2l0.4-1.2c0.7-2.3,1.5-4.6,2.3-6.8l0.1-0.2
		c0.9-2.5,1.7-5,2.5-7.4c1.4-4.4,3-9.2,5.2-15.1c1.8-4.8,3-9.5,4.4-14.7c3.5-13.7,5.7-26.1,6.9-38c0.7-7.8,0.9-15.8,0.9-23.6
		C1134.9,580.2,1134.1,580.9,1133.3,581.5z"/>
	<path class="st2" d="M734.9,805.5c-1.7-1.7-3.5-3.5-5.2-5.2c-2.7-2.6-5.4-5.2-7.8-8.1c-4-4.6-7.7-9.5-11.4-14.4
		c-4-5.4-7.3-11.2-10.7-17c-3-5.1-6.1-10.3-8.8-15.6c-2.8-5.5-5.1-11.3-7.6-16.9c-2.4-5.5-4.3-11.2-5.9-17.1
		c-0.8-2.8-1.6-5.6-2.3-8.5c-3,0.1-6,0.1-9,0.4c-3.3,0.3-6.6,1-9.8,1.9c-4.2,1.3-8.5,2.6-12.5,4.6c-3.5,1.8-7,3.5-10.4,5.3
		c1.4,2.6,2.9,5.4,4.7,8c4.2,6.2,9,12.2,13.5,17.6c5.5,6.7,12.2,13.5,20.8,21.6c3.4,3.2,6.9,6.5,10.5,10c1.1,1,2.1,2.1,3.1,3.1
		l0.6,0.6l0.1,0.1c2,2,4.4,4.4,6.9,6.7c2.5,2.3,5.1,4.4,7.6,6.6l0.3,0.2l2.2,1.9c0.8,0.6,1.5,1.3,2.2,1.9l0.5,0.4
		c2.3,2,5.1,4.4,7.8,6.6l1.7,1.3l0.1,0.1c3.1,2.5,6.3,5.1,9.8,7.2c2.1,1.3,4.5,2.6,6.5,3.6c4.7,2.4,9.5,4.4,14.9,6.6
		c0.4,0.2,0.7,0.3,1.1,0.5C743.7,815.2,739.4,810.2,734.9,805.5z"/>
	<path class="st2" d="M1011.7,796.6c-2.4,0.4-4.9,0.7-7.3,1.2c-2.3,0.5-4.6,1.1-7,1.6c-2.5,0.7-5,1.4-7.6,2c-2.3,0.5-4.7,1-7.1,1.4
		c-4.6,0.8-9.2,1.3-13.9,1.6c-3.1,0.2-6.3,0.5-9.4,0.2c-2.3-0.2-4.6-0.5-6.9-0.9c-5.1-0.7-10.1-1.5-15.1-2.6
		c-5.8-1.3-11.6-2.8-17.3-4.5c-5-1.5-9.9-3.3-14.8-5.1c-10-3.6-20.1-7.2-30.1-10.8c-2.5-0.9-5-1.8-7.5-2.7c-2.3-0.8-4.7-1.5-7-2.4
		c-5-2-9.9-4.1-14.8-6.2c-4.8-2-9.6-3.9-14.3-6c-4.9-2.3-9.8-4.6-14.7-7c-9.1-4.5-18.7-7.9-27.5-13c-5.3-3.1-10.6-6.3-15.8-9.6
		c-2.1-1.4-4.2-2.9-6.3-4.3c-1.7-1.2-3.5-2.3-5.3-3.4c-3.4-1.8-7-3.3-10.6-4.7c-4.2-1.7-8.3-3.5-12.5-5.2c-2-0.8-4-1.6-6-2.5
		c-1.9-0.8-3.6-1.7-5.5-2.4c-3.6-1.5-7.1-3-10.8-4.2c-2.9-0.6-5.9-1-8.9-1.4c-3.4-0.4-6.9-0.9-10.3-1.3c-0.3,0-0.6-0.1-0.9-0.1
		c0.2,0.7,0.4,1.4,0.6,2.1c1.3,4.5,2.9,8.8,4.7,13.1c1.8,4.4,3.8,8.7,5.7,13c1.8,4.2,4.1,8.2,6.4,12.1c2.1,3.6,4.2,7.2,6.3,10.9
		c3,4.9,6.3,9.6,9.8,14.2c3.6,4.7,7.3,9.3,11.4,13.5c3.7,3.6,7.4,7.2,11,11c2.7,2.8,5.2,5.7,7.9,8.5c3.6,3.4,7.5,6.4,11.2,9.7
		c4,3.6,7.9,7.2,11.9,10.8c2.3,2,4.6,4.1,6.9,6.1c2.4,2,5,3.9,7.5,5.8c2.1,1.5,4.1,3,6.2,4.5c0.9,0.2,1.8,0.3,2.7,0.5l1.3,0.2
		c7.4,1.4,14.9,2.7,22.1,3.9c2.8,0.5,5.5,0.9,8.2,1.4c8.4,1.5,15.8,2.3,22.7,2.6c4.4,0.2,8.9,0.2,12.9,0.2l2.2,0h0.2
		c10.8,0,21.6-2.3,31.9-4.6c5.3-1.2,11.2-2.4,17-3.3c5.2-0.7,11.3-1.6,17.2-3c4.5-1.1,9.3-2.5,14.6-4.6c7.9-2.9,14.6-5.9,20.6-9.1
		c2-1,4-2.1,5.7-2.9c2.5-1.3,5.5-2.8,8.3-4.3c1.7-0.9,3.4-1.9,5.1-2.8l0.5-0.3c2.3-1.3,5.2-2.8,7.9-4.4c3-1.8,6-3.8,8.7-5.5l0.1-0.1
		c1.4-0.9,2.8-1.9,4.3-2.8c2.7-1.7,5.4-3.3,8.1-4.8l0.2-0.1c1.5-0.8,3-1.7,4.5-2.6c-1.3,0.2-2.7,0.5-4,0.8
		C1021.9,795.2,1016.8,795.9,1011.7,796.6z"/>
	<path class="st2" d="M1049,397.9c-4.5-0.6-9-0.9-13.6-0.9c-9.8,0.4-19.5,1.3-29.1,3.3c-4.8,1-9.5,2.2-14.3,3.4
		c-4.2,1.1-8.5,2.2-12.7,3.3c-4.3,1.3-8.5,2.8-12.7,4.6c-4.5,2-9,3.9-13.5,5.9c-4.6,2.2-9.2,4.4-13.8,6.6c-2.3,1.1-4.6,2.2-6.8,3.3
		c-2.1,1.1-4.2,2.4-6.3,3.6c0.8-0.4,1.5-0.9,2.3-1.3c-2.7,1.8-5.4,3.6-8.2,5.3c-3.4,2.1-6.8,4.1-10.2,6.1c-1.3,0.8-2.6,1.5-3.9,2.3
		c-0.6,0.3-1.1,0.7-1.7,1c-3.2,2-6.3,4.1-9.4,6.2c-3.3,2.2-6.7,4.2-10.2,6.1c-4.3,2.6-8.5,5.5-12.6,8.5c-2.1,1.6-4.2,3.1-6.3,4.6
		c-2.3,1.6-4.7,3.1-6.9,4.8c-4.5,3.4-8.9,6.9-13.2,10.6c-3.9,3.4-7.9,6.6-11.9,9.9c-4.4,3.7-8.6,7.5-12.9,11.4
		c-4,3.6-8.3,6.9-12.5,10.3c-4.1,3.3-8.4,6.4-12.7,9.5c-4.9,3.6-10.3,6.5-15.7,9.3c-2.4,1.3-4.8,2.6-7.2,3.9
		c-2.2,1.2-4.3,2.6-6.6,3.8c-2.4,1.3-4.8,2.6-7.3,3.5c-3.1,1.1-6.1,2-9.2,2.8c-1.7,0.5-3.4,0.9-5.1,1.4c-2.7,0.8-5.3,1.7-8,2.5
		c-3.4,1-6.8,2-10.2,2.8c-2.4,0.6-4.9,1.4-7.4,1.9c-2.5,0.5-5,1-7.6,1.3c-5.4,0.7-10.7,1.4-16.1,1.8c-2.7,0.2-5.5,0.4-8.2,0.5
		c-0.9,6.9-1.7,13.8-2.6,20.7c-0.8,6.3-1.6,12.5-2.4,18.8c-0.6,4.8-1.2,9.6-1.5,14.5c0.6,0,1.3,0.1,1.9,0.1
		c6.4,0.4,12.7,0.3,19.1,0.7c6.3,0.4,12.5,1.2,18.7,2c6.6,0.8,13.3,1.7,19.9,2.5c6.4,0.8,12.8,1.6,19.2,2.3
		c6.3,0.6,12.6,0.8,18.9,1.1c6.5,0.3,13,0.5,19.5,0.8c6.1,0.3,12.2,0.3,18.2,0.4c2.1-0.1,4.3-0.2,6.4-0.3c2.4-0.2,4.8-0.2,7.2-0.3
		c4.7-0.2,9.5-0.8,14.2-1c2.3-0.1,4.6-0.4,6.9-0.6c2.1-0.2,4.2-0.3,6.3-0.5c4.6-0.6,9.3-1.2,13.9-1.7c6.1-0.8,12.2-1.7,18.3-2.2
		c6.5-0.6,13-0.9,19.5-1.2c3.4-0.1,6.9-0.2,10.3-0.3c2.3,0,4.5,0,6.8,0c1.9,0,3.7,0,5.6,0c3.4,0,6.8,0,10.2,0c2.4,0,4.8,0,7.1,0
		c3.6-0.1,7.1-0.2,10.7-0.4c6.3-0.3,12.5-1.1,18.7-2.1c6.5-1.1,13.2-1.9,19.6-3.3c6.5-1.4,12.9-2.8,19.3-4.3
		c5.5-1.2,11-2.1,16.4-3.5c6.4-2.2,12.4-5.1,18.7-7.4c2.7-1,5.4-1.9,8-2.8c2.7-0.9,5.5-1.7,8.2-2.7c5.5-2.1,10.6-4.7,15.8-7.4
		c5.7-2.9,11.4-5.7,17.3-8.2c4.9-2.1,9.6-4.6,14.2-7.2c3.2-2.1,6.2-4.4,9.2-6.9c2.9-2.4,5.8-4.7,8.5-7.2c0.7-0.7,1.3-1.4,1.9-2.1
		c0-0.1,0-0.1,0-0.2c0-3.9,0.1-7.9-0.3-11.9c-0.6-7.2-1.6-14.6-3-22c-0.8-4.1-2-8.2-3.2-12.1l-0.8-2.5c-1.2-4-2.5-8-3.8-11.9l0-0.1
		l-0.8-2.4c-2.4-7.1-5.5-14-8.5-20.7l-0.8-1.8l0-0.1l0-0.1c-3.9-8.8-8-17.8-12.6-26.5c-2.6-4.9-5.5-9.6-8.1-13.8l-0.7-1.2l-0.1-0.1
		c-0.9-1.5-1.9-3.1-3-4.7c-2.4-3.6-5.1-7.1-7.5-10.2l-1-1.3c-2-2.5-4.1-5-6.3-7.3c-3.5-0.4-7-0.9-10.6-1.3
		C1059.4,399.2,1054.2,398.6,1049,397.9z"/>
	<path d="M761.2,351.7c0,0,0.1-0.1,0.1-0.1c0.2-0.2,0.3-0.3,0.5-0.5C761.6,351.3,761.4,351.5,761.2,351.7z"/>
	<path d="M893.5,427.3c0.4-0.3,0.9-0.5,1.3-0.8c0,0,0,0,0.1,0C894.4,426.8,893.9,427,893.5,427.3z"/>
	<path d="M1135.8,570.5c0-6.1,0-12.2,0-18.3c-10.1,11-22.5,18.3-36,24.3c-13.5,6.1-26.3,12.9-40.3,17.8
		c-13.8,4.7-26.4,10.4-40.8,13.2c-15.4,3-30.6,6.7-46.1,8.6c-15.1,1.9-30.2,1.6-45.4,1.5c-16.2-0.1-32.4,0.7-48.5,2.7
		c-31,3.9-62.1,5.8-93.4,4.5c-17.1-0.7-34.2-2.3-51.3-4.4c-8.6-1.1-17.1-2.3-25.7-3.1c-9.1-0.8-18.2-0.7-27.2-1.3
		c0.9-18,4.1-36.1,6.5-54c14.4-0.3,28.6-2.8,42.5-6.5c12.8-3.4,26.5-6.8,38.2-13.1c12.4-6.7,24.7-13.2,35.8-21.8
		c10.6-8.2,20.4-17.3,30.7-26c22.2-18.7,45.3-35.4,70.1-50.4c23.9-14.4,47.3-28,74-36.6c15.2-4.9,30.8-8.8,46.7-10.1
		c16.8-1.4,33,1.7,49.5,3.8c-5.1-5.5-10.6-10.7-15.9-16.1c-2.4-2.4-4.8-5.6-7.9-7.1c-3-1.5-6.7-1.3-10-1.4
		c-15.4-0.5-30.7,1.5-45.6,5c-27.2,6.4-53.5,16.3-77.5,30.5c-25.9,15.4-52.1,31.2-76,49.6c-21.4,16.4-39.7,36.5-62.6,50.9
		c-26.7,16.8-57.6,26.6-89.1,28.6c7.9-40.8,19.1-80.5,38.7-117.4c18.4-34.7,49-61.5,79.1-85.8c8.7-7,17.3-13.9,26.6-20.2
		c8.4-5.7,17.3-13.1,27.7-14.5c-10.9-0.2-21.7-0.7-32.5,0.9c-4.8,0.7-10.2,1-14.7,2.9c-4.5,1.9-8.4,5.4-12.1,8.6
		c-8.2,7.2-17.1,13.3-25.3,20.4c-8.2,7.1-16,14.6-23.6,22.4c-14.7,15.1-29.1,30.6-39.8,49c-10.8,18.7-19,38.8-26.5,59
		c-4.3,11.6-7,23.7-9.8,35.8c-2.9,12.3-6,24.5-8.3,36.9c-18.3-11.7-29.3-29.8-33.7-50.8c-2.4-11.5-3.8-23.2-3-35
		c0.8-12.3,2.7-24.6,3.5-36.9c-8.9,11.7-18.1,25.4-22.7,39.4c-4.4,13.1,0.1,28.2,3.1,41.2c3.2,13.8,9.2,26.8,18,38
		c8,10.2,18.7,21.7,31.7,25c-2.3,17.7-5.7,35.7-6.4,53.5c-6.8-0.9-13.8-1.3-20.5-2.7c-6-1.2-11.6-4-17.3-6.3
		c-10.8-4.2-22.3-7.8-30.5-16.5c0,4.9,0.2,9.8,0.7,14.6c0.3,3.2,0,7.9,1.5,10.8c2.5,5.2,12.9,7.1,17.8,9c7.6,2.9,14.9,6.7,23,8.3
		c8.8,1.7,17.9,2.4,26.7,3.5c2.6,16.1,5.1,32.3,8.6,48.2c-16.7,0.5-31.4,6.1-46,14c2.9,6.2,5.8,12.4,8.9,18.4
		c13.4-7.3,26.3-11.9,41.7-12.1c8.3,32.1,24.4,64.3,46.5,89.2c5.6,6.3,11.8,12.2,17.7,18.3c4.8,5,9.3,9.3,15.7,12.4
		c15.6,7.4,32.2,13.8,49.2,17.1c-46.8-34.1-91.3-78.3-107.5-135.4c6.1,0.7,12.3,1.1,18.3,2.4c6.3,1.5,12.1,4.5,18,7
		c11.6,5,23.6,8.9,34.3,15.7c22.3,14.1,45.2,25.9,69.5,36.1c25.5,10.6,51.3,20.4,77.6,29.2c25.5,8.5,51,12.8,77.4,6.2
		c7.3-1.8,14.6-3.6,22.1-4.7c5.9-0.8,12.2-1,17.7-3.4c6.4-2.8,12.4-7.8,18.1-12c5.9-4.4,11.7-9.1,16.9-14.3
		c-26.3,3.9-52.9,8.3-78.8,14.4c-25.8,6.1-50.1,0.5-74.6-8.3c-24.8-8.9-49.6-17.5-73.7-28.3c-12.2-5.5-24.7-10.8-36.6-17
		c-10.6-5.5-20.1-12.9-30.4-18.8c-12.2-7-25.8-11.4-38.7-16.8c-13.4-5.6-27.7-7.3-42.1-8.6c-3.3-15.5-6-31.1-8.5-46.7
		c31.8,1,63.1,6.7,94.9,8.3c32.2,1.6,64.4,0.6,96.4-3.4c31.9-3.9,64-1.4,96-4.6c15.9-1.6,31.5-5,47.1-8.3c7.3-1.5,14.7-2.9,21.9-5
		c7.7-2.3,14.9-5.7,22.5-8.3c7.9-2.8,15.9-5.2,23.4-8.8c7.8-3.7,15.5-7.8,23.4-11.5c7-3.2,13.7-6.7,20.3-10.5c2.2-1.2,5.5-2.6,6.6-5
		C1137,576.9,1135.8,573.3,1135.8,570.5z"/>
	<path d="M636,417.8l-0.1,0.1l1.1-1.4c0,0,0,0,0-0.1C636.7,417,636.3,417.4,636,417.8z"/>
</g>
<path class="st3" d="M872.8,568.7c-4-4-10.9-4-16.2-4c-7.2-0.1-14.4-0.2-21.6-0.1c-18.4,0.3-36.7,1-55.1,1.2
	c-37.1,0.3-74.3,0.2-111.5,0.2c-37.4,0-74.8,1.2-112.2,1.4c-18.6,0.1-37.3-0.6-55.9-0.7c-18.5,0-37,0.9-55.5,0.4
	c-20.5-0.6-41,0.3-61.5,0.2c-21.2-0.1-42.4-1.6-63.6-2c10.8-10,21.5-20.1,33.7-28.5c5.9-4.1,12-7.9,18-11.9
	c5.6-3.6,12.1-6.6,17.3-10.7c3.9-3,5.6-8.1,3.6-12.7c-3-6.9-10.1-6.7-15.9-3.9c-13.2,6.4-25.7,15.8-37.5,24.3
	c-11.4,8.2-21.3,18-31.8,27.3c-3.8,3.4-7.6,6.2-11.9,8.8c-3.6,2.2-7.6,4.4-10.1,7.9c-5.6,7.8,1.4,16.4,9.2,18.7
	c9.2,2.8,19.4,1,28.8,1.2c31,0.7,62,2.1,93,2c31.7-0.1,63.4-1.3,95.1-0.6c31.6,0.7,63-0.3,94.5-0.8c31.6-0.6,63.1-0.1,94.7-0.1
	c35.1,0,70.3,0.6,105.3-0.5c16-0.5,32.3-2,48.2-0.2c5.8,0.7,13.2,2.2,18.1-1.8C876.5,580.1,877,572.9,872.8,568.7z"/>
<path class="st3" d="M421.9,378.9c-1.6-5.8-8.3-9-13.8-6.7c-5.8,2.4-7.9,9.7-9.7,15.1c-5.2,15.5-9.5,31.6-16,46.6
	c-1.4,3.1-4.1,12.1-8.8,9.6c-5.4-2.8-5.8-13.5-6.4-18.7c-0.9-7.5-1.6-15.4-4.9-22.3c-3.5-7.2-10.1-12.5-16.9-16.4
	c-7.3-4.2-14-4.6-22.2-3.6c-5.3,0.7-11.9,1-15.3,5.7c-3.8,5.1-1.6,12.8,4.2,15.4c6.6,2.9,13.4-2.1,20.1-0.7
	c16.5,3.5,14,25.3,17.3,37.5c3.5,13,14.3,26.7,29.3,24c14.7-2.6,21.1-17.8,25.4-30.4c3-8.8,5.6-17.6,8.7-26.4
	c1.8-5.1,3.6-10.2,5.7-15.2C420.2,388.3,423.2,383.6,421.9,378.9z"/>
<path class="st3" d="M499.8,422.2c-4.6-7-12.7-11.2-20-14.8c-8-3.9-17.6-7.6-26.7-7.4c-9.9,0.3-15.1,7.4-20.4,14.8
	c-4.9,7-8,14-8.5,22.6c-0.7,14,3.9,30.7,16.7,38.2c7.9,4.6,17.7,5.6,26.7,5.9c8.6,0.2,17-1.3,22.9-7.9c6-6.6,9.4-15.5,11.1-24.2
	C503.4,440.8,505,430,499.8,422.2z M454,420.4C454,420.4,454,420.4,454,420.4L454,420.4C454,420.4,454,420.4,454,420.4z M482,443
	c-0.8,5.1-2,13.6-6.4,17c-4.5,3.5-15.7,1.1-20.7-0.5c-7.3-2.3-9.5-9.6-10-16.6c-0.7-9.2,4-15.3,9.1-22.5c8,1,14.8,4.4,21.8,8.1
	c2.4,1.3,5.7,2.4,6.8,5.2C483.7,436.4,482.3,440.2,482,443z"/>
<path class="st4" d="M910.4,1044.7c-6.1-20.6-33.1,7.1-38.7,14.5c2.5-33.3,0.8-66.6,1.7-99.9c0.9-33.1,2.5-66.2,2.8-99.4
	c0.1-16-0.7-32-0.6-48c0.2-16.8,1.2-33.6,1-50.4c-0.3-32.3-0.3-64.6-0.1-96.9c0.1-16.9-0.2-33.7-0.5-50.6
	c-0.1-7.1-0.4-14.3-0.1-21.4c0.2-5.9,2-13.4-2.4-18.3c-3.5-4-9.9-4.5-14.1-1.2c-4.5,3.6-4.5,10.1-4.5,15.4
	c0.2,15.9,0.6,31.8,0.9,47.7c1.2,65.9-1.3,131.8-0.7,197.8c0.4,36.7-0.8,73.3-1.8,109.9c-1,37.6,0.3,75.2-2,112.8
	c-4.5-8.3-13.2-25.9-24.8-24.8c-8.8,0.8-10.8,10.3-6.6,16.7c5.4,8.3,12.8,14.4,16.3,24c3.8,10.1,3.8,25.1,13.3,32
	c12.9,9.4,24.7-7.6,29.7-17.3c4-7.8,7.7-15.4,14.3-21.5C899.3,1060.4,913.3,1054.8,910.4,1044.7z"/>
<path class="st4" d="M481.2,1075.2c-0.5-0.2-1-0.3-1.5-0.5c-1.9-9.8-0.7-19.9-0.1-29.7c0.3-5,0.5-10,1.1-15
	c0.5-4.3,1.7-8.8,0.5-13.1c-5-18.3-24-25.5-40-15.5c-14.1,8.8-23.7,24.5-29.2,39.8c-4.6,13.1-11.1,37.5,2.4,47.5
	c6.7,5,16.6,6.6,24.5,4c8.7-2.9,15-10.5,20-17.9c0.8,5.6,2,11.3,6.4,15.2c4.1,3.7,11,6.5,16.4,4.4
	C490.3,1091.3,489.9,1078,481.2,1075.2z M458.1,1025.5c-3.9,11.5-7.7,22.9-13.5,33.6c-3.4,6.3-8.8,16-17.5,13.2
	c0.1-14.6,4.9-28.5,13-40.7c3.3-5,12.7-19.9,20.1-12.9C459.5,1021,458.8,1023.2,458.1,1025.5z M461.2,1019.9c0-0.1,0-0.2,0-0.3
	c0,0,0,0,0,0C461.2,1019.7,461.2,1019.8,461.2,1019.9z M478.3,1074.2c0-0.1-0.1-0.1-0.1-0.2C478.2,1074,478.2,1074.1,478.3,1074.2
	C478.3,1074.2,478.3,1074.2,478.3,1074.2z"/>
<path class="st4" d="M564.6,1052.1c0.4-11.7-15.6-13.7-20-3.8c-4,9-2.2,24.5-14.6,27.2c-2.7-5.4-2.4-12-2.2-17.9
	c0.1-5.5,2-12.4-0.9-17.5c-2.8-5-9.6-6.6-14.4-3.5c-4.8,3.1-4.9,9.3-5.1,14.4c-0.6,12-1.3,26.3,6,36.6c6.7,9.5,19.6,10.1,29.2,4.9
	c-0.3,7.9-0.9,15.9-1.2,23.8c-0.3,7.1-1.3,8.5-8.6,9.2c0.3,0,0.7-0.1,1-0.1c-5.4,0.5-11.8-0.2-15.9,4.1c-3.7,3.9-3.4,10.4,0.4,14.1
	c4.2,4.2,10.9,3.3,16.2,2.5c6-0.9,12.3-1.7,17.5-5c12.3-7.8,10.3-28.3,10.9-40.9C563.5,1084.3,565.9,1068.1,564.6,1052.1z"/>
<path class="st4" d="M652.2,1049.7c-6.7-0.2-13.5-0.5-20.2-0.7c-6.2-0.2-13.7-1.6-19.8-0.3c-11.8,2.5-9.9,19.2,1.6,20.3
	c7.1,0.6,14.4,0.4,21.5,0.7c5.7,0.2,12.7,1.6,18.4,0.4C665.2,1067.6,664.2,1050.2,652.2,1049.7z"/>
<path class="st4" d="M645.9,1017.6c-6.3-0.4-12.7-0.7-19-1.1c-4.8-0.3-11.2-1.8-15.8,0.7c-9.5,5.2-5.3,18.1,4.5,19.3
	c5.9,0.7,12,0.6,18,1c5.1,0.3,11.9,2,16.6-0.4C659.3,1032.2,656.2,1018.1,645.9,1017.6z"/>
<path class="st4" d="M752.4,1018.8c-0.1-11-15.7-15.1-24.5-14.8c-12.7,0.4-23.6,8.1-29.9,18.9c-6.2,10.8-7.2,25,2.6,34
	c7.2,6.6,20.3,12.2,29.8,7.3c-0.5,20,1.2,40.4-4.2,59.9c-2.7,9.8-8.7,9.2-17.1,11.6c-6.6,1.9-11.2,9-7.3,15.4c4.3,7,13,4.7,19.5,2.9
	c7.8-2.2,14.6-5.6,19.4-12.4c9.9-14.1,9.4-33.6,9.6-50c0.1-11.8,0.4-23.6,0.8-35.5C751.5,1043.6,752.9,1031.2,752.4,1018.8z
	 M728.7,1026.8c-2,6.1-3.7,12.6-7.1,18c-5.5-1.3-9.2-3.6-6.8-9.7c2.3-5.9,8-11.1,14.7-10.7C729.2,1025.2,729,1026,728.7,1026.8z"/>
<path class="st5" d="M238.9,563c-20.7-0.1-41.4,0-62.1-0.3c-5.4-0.1-12.1-0.3-15.2,5c-4.3,7.3,1.3,14.2,8.6,15.4
	c10.3,1.7,21.7,0.6,32.1,0.5c9.3-0.1,18.6-0.4,27.8,0c6.1,0.2,14,1,17.7-5.1C252.1,571.7,246.7,563,238.9,563z"/>
<path class="st5" d="M874.7,456.7c-0.8-6.5-8.1-10.4-14.1-8c-6.1,2.5-6.4,9.1-6.4,14.8c0,9.4,0,18.8-0.1,28.2c0,8.4-1.4,17-0.3,25.3
	c0.8,6.8,6.2,13.1,13.7,10.6c6.5-2.1,7-8.9,7-14.7c0.1-9.5,0-19,0.1-28.5C874.8,475.2,875.9,465.9,874.7,456.7z"/>
<path class="st5" d="M875.3,204.3c-0.8-6.5-8.1-10.4-14.1-8c-6.1,2.5-6.4,9.1-6.4,14.8c0,9.4,0,18.8-0.1,28.2c0,8.4-1.4,17-0.3,25.3
	c0.8,6.8,6.2,13.1,13.7,10.6c6.5-2.1,7-8.9,7-14.7c0.1-9.5,0-19,0.1-28.5C875.4,222.8,876.5,213.5,875.3,204.3z"/>
<path class="st5" d="M875,353.9c0-8.7,2.9-20.9-0.7-29.2c-2.7-6.3-11.5-8.2-16.4-3.4c-5.2,5-3.3,13.7-3.3,20.2
	c0,10.7,0.1,21.5-0.2,32.2c-0.2,8.4-3,21.4,1.4,28.9c3.5,5.9,11.9,7,16.4,1.7c4.3-5,2.8-12.9,2.7-18.8
	C874.7,374.9,874.9,364.3,875,353.9z"/>
<path class="st5" d="M110.1,562.6c-13.3,0-26.6-0.1-39.9-0.1c7.3-3.4,23.6-9.4,17.9-20.3c-3.3-6.4-10-5.9-15.8-3.6
	c-7.9,3.2-15.5,7.6-23.4,11c-5.9,2.6-13.6,5.2-16.1,11.8c-2.9,7.7,2.9,16.7,7.2,22.8c4.8,6.9,10.8,12.9,15.6,19.9
	c3.7,5.3,7.9,12.8,14.9,13.8c6.7,0.9,12.9-4.4,11.6-11.4c-0.8-4.1-4.2-7.5-6.7-10.7c-3.4-4.3-6.7-8.7-10.2-12.9
	c9.3,0,18.6,0,27.9,0.3c6.8,0.2,16.5,2,22.6-2C124,575.8,120,562.6,110.1,562.6z"/>
<path class="st5" d="M157.1,639.5c-4.5-7.3-12.7-3.8-18.4-0.1c-8.1,5.2-15.5,11.5-23.2,17.4c-1-7.6-3.5-15.9-11.1-19.2
	c-7.5-3.2-17.5-1.2-24.7,1.9c-7,3-13.2,11.3-5.8,17.7c6,5.2,14.3,0.8,21.1,0.1c0.9,4.1,2.4,8.7,1.7,12.9c-0.8,4.5-4.5,6.8-7.6,9.7
	c-3.8,3.6-7,7.8-10.9,11.4c-3.2,2.9-7.4,5.3-9.6,9.1c-4.1,7,0.9,16.8,9.4,15.8c4.6-0.5,7.9-4.1,11-7.1c4.2-4,8.4-7.9,12.2-12.2
	c3.6,10.2,12.7,18.2,23.5,19.8c8.7,1.3,21.8-0.8,25.9-9.8c4.2-9.4-5.7-16.5-14.2-13.5c-4.9,1.7-9.4,5-13.8,0.3
	c-3.3-3.5-3.5-8.8-4.4-13.3c9.1-7.8,19.1-14.6,28.8-21.6C153,654.4,162.3,647.8,157.1,639.5z M96.9,656.8L96.9,656.8
	C96.9,656.8,96.9,656.8,96.9,656.8C96.9,656.8,96.9,656.8,96.9,656.8z"/>
<path class="st5" d="M901.7,82.4c-1.8-6.1-8.3-8.4-13.3-11.2c-6.5-3.7-8.3-9.5-12.5-15.2c-3.8-5.2-11-8-17.1-4.9
	c-6.2,3.2-8.4,10.8-12.4,16c-6.3,8.3-21,17.2-18.2,29.5c1.4,6.2,8.9,10.2,14.8,6.9c2.6-1.5,3.7-4.2,5.3-6.6c2.2-3.4,5.1-6.2,7.7-9.2
	c-0.2,15.9-0.3,31.7-0.9,47.5c-0.3,7.5,0.1,18.8,9.9,19.3c10.4,0.6,11.2-11.1,11.2-18.8c-0.1-16,0.1-31.9,0.3-47.8
	c5.3,2.8,10.3,8.5,16.9,7.6C899.3,94.7,903.4,88.2,901.7,82.4z"/>
<path class="st5" d="M978.7,127c-0.2-5.2,0.1-11.2-2.4-15.9c-2.9-5.4-10.2-6.4-14.8-2.4c-8.5,7.4-3.5,23.7-13.7,30.6
	c-6.6,4.5-8.9-7.3-8.9-11.7c0.1-6.9,3.8-16.6-1.8-22.3c-4.6-4.6-12.5-3.8-15.9,1.7c-4,6.2-3,18-2.3,25c0.9,9.4,4.5,19,12.6,24.5
	c7.8,5.2,18.9,6.6,26.6,0.7c-0.1,10-0.2,20.1-1.8,30c-1.5,9.2-5.9,11.1-14.4,12.9c-6.6,1.4-13.1,4.9-11.1,12.7
	c1.8,7.1,8.6,8.1,14.9,7.3c7.9-1,16.1-3.7,21.8-9.4c5.9-5.9,8.1-14.2,9.3-22.3C979.7,168.2,979.3,147.3,978.7,127z M946.5,140.7
	C946.5,140.7,946.5,140.7,946.5,140.7c0.1,0,0.2-0.1,0.3-0.1C946.8,140.6,946.7,140.7,946.5,140.7z"/>
</svg>
